<svg width="478" height="275" viewBox="0 0 478 275" fill="none" xmlns="http://www.w3.org/2000/svg">
<rect width="478" height="275" fill="#F5F5F5"/>
<path d="M0.0681818 202V132.182H27.6136C32.8864 132.182 37.3864 133.125 41.1136 135.011C44.8636 136.875 47.7159 139.523 49.6705 142.955C51.6477 146.364 52.6364 150.375 52.6364 154.989C52.6364 159.625 51.6364 163.614 49.6364 166.955C47.6364 170.273 44.7386 172.818 40.9432 174.591C37.1705 176.364 32.6023 177.25 27.2386 177.25H8.79546V165.386H24.8523C27.6705 165.386 30.0114 165 31.875 164.227C33.7386 163.455 35.125 162.295 36.0341 160.75C36.9659 159.205 37.4318 157.284 37.4318 154.989C37.4318 152.67 36.9659 150.716 36.0341 149.125C35.125 147.534 33.7273 146.33 31.8409 145.511C29.9773 144.67 27.625 144.25 24.7841 144.25H14.8295V202H0.0681818ZM37.7727 170.227L55.125 202H38.8295L21.8523 170.227H37.7727ZM85.8153 203.023C80.429 203.023 75.7926 201.932 71.9062 199.75C68.0426 197.545 65.0653 194.432 62.9744 190.409C60.8835 186.364 59.8381 181.58 59.8381 176.057C59.8381 170.67 60.8835 165.943 62.9744 161.875C65.0653 157.807 68.0085 154.636 71.804 152.364C75.6222 150.091 80.0994 148.955 85.2358 148.955C88.6903 148.955 91.9063 149.511 94.8835 150.625C97.8835 151.716 100.497 153.364 102.724 155.568C104.974 157.773 106.724 160.545 107.974 163.886C109.224 167.205 109.849 171.091 109.849 175.545V179.534H65.6335V170.534H96.179C96.179 168.443 95.7244 166.591 94.8153 164.977C93.9063 163.364 92.6449 162.102 91.0312 161.193C89.4403 160.261 87.5881 159.795 85.4744 159.795C83.2699 159.795 81.3153 160.307 79.6108 161.33C77.929 162.33 76.6108 163.682 75.6562 165.386C74.7017 167.068 74.2131 168.943 74.1903 171.011V179.568C74.1903 182.159 74.6676 184.398 75.6222 186.284C76.5994 188.17 77.9744 189.625 79.7472 190.648C81.5199 191.67 83.6222 192.182 86.054 192.182C87.6676 192.182 89.1449 191.955 90.4858 191.5C91.8267 191.045 92.9744 190.364 93.929 189.455C94.8835 188.545 95.6108 187.432 96.1108 186.114L109.543 187C108.861 190.227 107.463 193.045 105.349 195.455C103.259 197.841 100.554 199.705 97.2358 201.045C93.9403 202.364 90.1335 203.023 85.8153 203.023ZM134.259 202.989C130.918 202.989 127.94 202.409 125.327 201.25C122.713 200.068 120.645 198.33 119.122 196.034C117.622 193.716 116.872 190.83 116.872 187.375C116.872 184.466 117.406 182.023 118.474 180.045C119.543 178.068 120.997 176.477 122.838 175.273C124.679 174.068 126.77 173.159 129.111 172.545C131.474 171.932 133.952 171.5 136.543 171.25C139.588 170.932 142.043 170.636 143.906 170.364C145.77 170.068 147.122 169.636 147.963 169.068C148.804 168.5 149.224 167.659 149.224 166.545V166.341C149.224 164.182 148.543 162.511 147.179 161.33C145.838 160.148 143.929 159.557 141.452 159.557C138.838 159.557 136.759 160.136 135.213 161.295C133.668 162.432 132.645 163.864 132.145 165.591L118.713 164.5C119.395 161.318 120.736 158.568 122.736 156.25C124.736 153.909 127.315 152.114 130.474 150.864C133.656 149.591 137.338 148.955 141.52 148.955C144.429 148.955 147.213 149.295 149.872 149.977C152.554 150.659 154.929 151.716 156.997 153.148C159.088 154.58 160.736 156.42 161.94 158.67C163.145 160.898 163.747 163.568 163.747 166.682V202H149.974V194.739H149.565C148.724 196.375 147.599 197.818 146.19 199.068C144.781 200.295 143.088 201.261 141.111 201.966C139.134 202.648 136.849 202.989 134.259 202.989ZM138.418 192.966C140.554 192.966 142.44 192.545 144.077 191.705C145.713 190.841 146.997 189.682 147.929 188.227C148.861 186.773 149.327 185.125 149.327 183.284V177.727C148.872 178.023 148.247 178.295 147.452 178.545C146.679 178.773 145.804 178.989 144.827 179.193C143.849 179.375 142.872 179.545 141.895 179.705C140.918 179.841 140.031 179.966 139.236 180.08C137.531 180.33 136.043 180.727 134.77 181.273C133.497 181.818 132.509 182.557 131.804 183.489C131.099 184.398 130.747 185.534 130.747 186.898C130.747 188.875 131.463 190.386 132.895 191.432C134.349 192.455 136.19 192.966 138.418 192.966ZM175.014 221.636V149.636H189.332V158.432H189.98C190.616 157.023 191.537 155.591 192.741 154.136C193.969 152.659 195.56 151.432 197.514 150.455C199.491 149.455 201.946 148.955 204.878 148.955C208.696 148.955 212.219 149.955 215.446 151.955C218.673 153.932 221.253 156.92 223.185 160.92C225.116 164.898 226.082 169.886 226.082 175.886C226.082 181.727 225.139 186.659 223.253 190.682C221.389 194.682 218.844 197.716 215.616 199.784C212.412 201.83 208.821 202.852 204.844 202.852C202.026 202.852 199.628 202.386 197.651 201.455C195.696 200.523 194.094 199.352 192.844 197.943C191.594 196.511 190.639 195.068 189.98 193.614H189.537V221.636H175.014ZM189.23 175.818C189.23 178.932 189.662 181.648 190.526 183.966C191.389 186.284 192.639 188.091 194.276 189.386C195.912 190.659 197.901 191.295 200.241 191.295C202.605 191.295 204.605 190.648 206.241 189.352C207.878 188.034 209.116 186.216 209.957 183.898C210.821 181.557 211.253 178.864 211.253 175.818C211.253 172.795 210.832 170.136 209.991 167.841C209.151 165.545 207.912 163.75 206.276 162.455C204.639 161.159 202.628 160.511 200.241 160.511C197.878 160.511 195.878 161.136 194.241 162.386C192.628 163.636 191.389 165.409 190.526 167.705C189.662 170 189.23 172.705 189.23 175.818ZM235.764 221.636V149.636H250.082V158.432H250.73C251.366 157.023 252.287 155.591 253.491 154.136C254.719 152.659 256.31 151.432 258.264 150.455C260.241 149.455 262.696 148.955 265.628 148.955C269.446 148.955 272.969 149.955 276.196 151.955C279.423 153.932 282.003 156.92 283.935 160.92C285.866 164.898 286.832 169.886 286.832 175.886C286.832 181.727 285.889 186.659 284.003 190.682C282.139 194.682 279.594 197.716 276.366 199.784C273.162 201.83 269.571 202.852 265.594 202.852C262.776 202.852 260.378 202.386 258.401 201.455C256.446 200.523 254.844 199.352 253.594 197.943C252.344 196.511 251.389 195.068 250.73 193.614H250.287V221.636H235.764ZM249.98 175.818C249.98 178.932 250.412 181.648 251.276 183.966C252.139 186.284 253.389 188.091 255.026 189.386C256.662 190.659 258.651 191.295 260.991 191.295C263.355 191.295 265.355 190.648 266.991 189.352C268.628 188.034 269.866 186.216 270.707 183.898C271.571 181.557 272.003 178.864 272.003 175.818C272.003 172.795 271.582 170.136 270.741 167.841C269.901 165.545 268.662 163.75 267.026 162.455C265.389 161.159 263.378 160.511 260.991 160.511C258.628 160.511 256.628 161.136 254.991 162.386C253.378 163.636 252.139 165.409 251.276 167.705C250.412 170 249.98 172.705 249.98 175.818ZM349.918 221.636C348.077 221.636 346.349 221.489 344.736 221.193C343.145 220.92 341.827 220.568 340.781 220.136L344.054 209.295C345.759 209.818 347.293 210.102 348.656 210.148C350.043 210.193 351.236 209.875 352.236 209.193C353.259 208.511 354.088 207.352 354.724 205.716L355.577 203.5L336.793 149.636H352.065L362.906 188.091H363.452L374.395 149.636H389.77L369.418 207.659C368.44 210.477 367.111 212.932 365.429 215.023C363.77 217.136 361.668 218.761 359.122 219.898C356.577 221.057 353.509 221.636 349.918 221.636ZM402.946 202H387.128L411.23 132.182H430.253L454.321 202H438.503L421.014 148.136H420.469L402.946 202ZM401.957 174.557H439.321V186.08H401.957V174.557ZM477.486 132.182V202H462.724V132.182H477.486Z" fill="black"/>
<path d="M314.12 80.3747V259M238 108.212L314.12 16L384 108.212" stroke="#5EB1FF" stroke-opacity="0.85" stroke-width="32" stroke-linecap="round" stroke-linejoin="round"/>
</svg>
