<svg width="478" height="297" viewBox="0 0 478 297" fill="none" xmlns="http://www.w3.org/2000/svg">
<rect width="478" height="297" fill="white"/>
<path d="M0.0681818 204V134.182H27.6136C32.8864 134.182 37.3864 135.125 41.1136 137.011C44.8636 138.875 47.7159 141.523 49.6705 144.955C51.6477 148.364 52.6364 152.375 52.6364 156.989C52.6364 161.625 51.6364 165.614 49.6364 168.955C47.6364 172.273 44.7386 174.818 40.9432 176.591C37.1705 178.364 32.6023 179.25 27.2386 179.25H8.79546V167.386H24.8523C27.6705 167.386 30.0114 167 31.875 166.227C33.7386 165.455 35.125 164.295 36.0341 162.75C36.9659 161.205 37.4318 159.284 37.4318 156.989C37.4318 154.67 36.9659 152.716 36.0341 151.125C35.125 149.534 33.7273 148.33 31.8409 147.511C29.9773 146.67 27.625 146.25 24.7841 146.25H14.8295V204H0.0681818ZM37.7727 172.227L55.125 204H38.8295L21.8523 172.227H37.7727ZM85.8153 205.023C80.429 205.023 75.7926 203.932 71.9062 201.75C68.0426 199.545 65.0653 196.432 62.9744 192.409C60.8835 188.364 59.8381 183.58 59.8381 178.057C59.8381 172.67 60.8835 167.943 62.9744 163.875C65.0653 159.807 68.0085 156.636 71.804 154.364C75.6222 152.091 80.0994 150.955 85.2358 150.955C88.6903 150.955 91.9063 151.511 94.8835 152.625C97.8835 153.716 100.497 155.364 102.724 157.568C104.974 159.773 106.724 162.545 107.974 165.886C109.224 169.205 109.849 173.091 109.849 177.545V181.534H65.6335V172.534H96.179C96.179 170.443 95.7244 168.591 94.8153 166.977C93.9063 165.364 92.6449 164.102 91.0312 163.193C89.4403 162.261 87.5881 161.795 85.4744 161.795C83.2699 161.795 81.3153 162.307 79.6108 163.33C77.929 164.33 76.6108 165.682 75.6562 167.386C74.7017 169.068 74.2131 170.943 74.1903 173.011V181.568C74.1903 184.159 74.6676 186.398 75.6222 188.284C76.5994 190.17 77.9744 191.625 79.7472 192.648C81.5199 193.67 83.6222 194.182 86.054 194.182C87.6676 194.182 89.1449 193.955 90.4858 193.5C91.8267 193.045 92.9744 192.364 93.929 191.455C94.8835 190.545 95.6108 189.432 96.1108 188.114L109.543 189C108.861 192.227 107.463 195.045 105.349 197.455C103.259 199.841 100.554 201.705 97.2358 203.045C93.9403 204.364 90.1335 205.023 85.8153 205.023ZM134.259 204.989C130.918 204.989 127.94 204.409 125.327 203.25C122.713 202.068 120.645 200.33 119.122 198.034C117.622 195.716 116.872 192.83 116.872 189.375C116.872 186.466 117.406 184.023 118.474 182.045C119.543 180.068 120.997 178.477 122.838 177.273C124.679 176.068 126.77 175.159 129.111 174.545C131.474 173.932 133.952 173.5 136.543 173.25C139.588 172.932 142.043 172.636 143.906 172.364C145.77 172.068 147.122 171.636 147.963 171.068C148.804 170.5 149.224 169.659 149.224 168.545V168.341C149.224 166.182 148.543 164.511 147.179 163.33C145.838 162.148 143.929 161.557 141.452 161.557C138.838 161.557 136.759 162.136 135.213 163.295C133.668 164.432 132.645 165.864 132.145 167.591L118.713 166.5C119.395 163.318 120.736 160.568 122.736 158.25C124.736 155.909 127.315 154.114 130.474 152.864C133.656 151.591 137.338 150.955 141.52 150.955C144.429 150.955 147.213 151.295 149.872 151.977C152.554 152.659 154.929 153.716 156.997 155.148C159.088 156.58 160.736 158.42 161.94 160.67C163.145 162.898 163.747 165.568 163.747 168.682V204H149.974V196.739H149.565C148.724 198.375 147.599 199.818 146.19 201.068C144.781 202.295 143.088 203.261 141.111 203.966C139.134 204.648 136.849 204.989 134.259 204.989ZM138.418 194.966C140.554 194.966 142.44 194.545 144.077 193.705C145.713 192.841 146.997 191.682 147.929 190.227C148.861 188.773 149.327 187.125 149.327 185.284V179.727C148.872 180.023 148.247 180.295 147.452 180.545C146.679 180.773 145.804 180.989 144.827 181.193C143.849 181.375 142.872 181.545 141.895 181.705C140.918 181.841 140.031 181.966 139.236 182.08C137.531 182.33 136.043 182.727 134.77 183.273C133.497 183.818 132.509 184.557 131.804 185.489C131.099 186.398 130.747 187.534 130.747 188.898C130.747 190.875 131.463 192.386 132.895 193.432C134.349 194.455 136.19 194.966 138.418 194.966ZM175.014 223.636V151.636H189.332V160.432H189.98C190.616 159.023 191.537 157.591 192.741 156.136C193.969 154.659 195.56 153.432 197.514 152.455C199.491 151.455 201.946 150.955 204.878 150.955C208.696 150.955 212.219 151.955 215.446 153.955C218.673 155.932 221.253 158.92 223.185 162.92C225.116 166.898 226.082 171.886 226.082 177.886C226.082 183.727 225.139 188.659 223.253 192.682C221.389 196.682 218.844 199.716 215.616 201.784C212.412 203.83 208.821 204.852 204.844 204.852C202.026 204.852 199.628 204.386 197.651 203.455C195.696 202.523 194.094 201.352 192.844 199.943C191.594 198.511 190.639 197.068 189.98 195.614H189.537V223.636H175.014ZM189.23 177.818C189.23 180.932 189.662 183.648 190.526 185.966C191.389 188.284 192.639 190.091 194.276 191.386C195.912 192.659 197.901 193.295 200.241 193.295C202.605 193.295 204.605 192.648 206.241 191.352C207.878 190.034 209.116 188.216 209.957 185.898C210.821 183.557 211.253 180.864 211.253 177.818C211.253 174.795 210.832 172.136 209.991 169.841C209.151 167.545 207.912 165.75 206.276 164.455C204.639 163.159 202.628 162.511 200.241 162.511C197.878 162.511 195.878 163.136 194.241 164.386C192.628 165.636 191.389 167.409 190.526 169.705C189.662 172 189.23 174.705 189.23 177.818ZM235.764 223.636V151.636H250.082V160.432H250.73C251.366 159.023 252.287 157.591 253.491 156.136C254.719 154.659 256.31 153.432 258.264 152.455C260.241 151.455 262.696 150.955 265.628 150.955C269.446 150.955 272.969 151.955 276.196 153.955C279.423 155.932 282.003 158.92 283.935 162.92C285.866 166.898 286.832 171.886 286.832 177.886C286.832 183.727 285.889 188.659 284.003 192.682C282.139 196.682 279.594 199.716 276.366 201.784C273.162 203.83 269.571 204.852 265.594 204.852C262.776 204.852 260.378 204.386 258.401 203.455C256.446 202.523 254.844 201.352 253.594 199.943C252.344 198.511 251.389 197.068 250.73 195.614H250.287V223.636H235.764ZM249.98 177.818C249.98 180.932 250.412 183.648 251.276 185.966C252.139 188.284 253.389 190.091 255.026 191.386C256.662 192.659 258.651 193.295 260.991 193.295C263.355 193.295 265.355 192.648 266.991 191.352C268.628 190.034 269.866 188.216 270.707 185.898C271.571 183.557 272.003 180.864 272.003 177.818C272.003 174.795 271.582 172.136 270.741 169.841C269.901 167.545 268.662 165.75 267.026 164.455C265.389 163.159 263.378 162.511 260.991 162.511C258.628 162.511 256.628 163.136 254.991 164.386C253.378 165.636 252.139 167.409 251.276 169.705C250.412 172 249.98 174.705 249.98 177.818ZM349.918 223.636C348.077 223.636 346.349 223.489 344.736 223.193C343.145 222.92 341.827 222.568 340.781 222.136L344.054 211.295C345.759 211.818 347.293 212.102 348.656 212.148C350.043 212.193 351.236 211.875 352.236 211.193C353.259 210.511 354.088 209.352 354.724 207.716L355.577 205.5L336.793 151.636H352.065L362.906 190.091H363.452L374.395 151.636H389.77L369.418 209.659C368.44 212.477 367.111 214.932 365.429 217.023C363.77 219.136 361.668 220.761 359.122 221.898C356.577 223.057 353.509 223.636 349.918 223.636ZM402.946 204H387.128L411.23 134.182H430.253L454.321 204H438.503L421.014 150.136H420.469L402.946 204ZM401.957 176.557H439.321V188.08H401.957V176.557ZM477.486 134.182V204H462.724V134.182H477.486Z" fill="black"/>
<path d="M314.205 86.2029V281M236 116.561L314.205 16L386 116.561" stroke="#5EB1FF" stroke-opacity="0.85" stroke-width="32" stroke-linecap="round" stroke-linejoin="round"/>
</svg>
